<?xml version="1.0" encoding="utf-8"?><svg xmlns="http://www.w3.org/2000/svg" xmlns:xlink="http://www.w3.org/1999/xlink"><symbol viewBox="0 0 13 27" id="facebook" xmlns="http://www.w3.org/2000/svg"><path fill="#0040FF" fill-rule="evenodd" d="M2.912 5.164v3.672H.222v4.49h2.69v13.34h5.526v-13.34h3.707s.348-2.153.516-4.507H8.458V5.75c0-.458.603-1.075 1.198-1.075h3.01V0H8.575c-5.8 0-5.663 4.494-5.663 5.164z"/></symbol><symbol viewBox="0 0 19 27" id="google" xmlns="http://www.w3.org/2000/svg"><path fill="#0040FF" fill-rule="evenodd" d="M18.259 0h-7.216C9.152 0 6.77.28 4.773 1.923c-1.508 1.296-2.241 3.08-2.241 4.69 0 2.729 2.102 5.495 5.815 5.495.35 0 .734-.036 1.122-.07-.176.419-.353.769-.353 1.365 0 1.085.561 1.748 1.051 2.379-1.574.104-4.518.279-6.69 1.608-2.068 1.227-2.7 3.01-2.7 4.27 0 2.59 2.454 5.007 7.534 5.007 6.025 0 9.214-3.325 9.214-6.617 0-2.412-1.401-3.604-2.943-4.899l-1.262-.979c-.383-.315-.909-.734-.909-1.505 0-.77.526-1.26.98-1.715 1.47-1.155 2.943-2.38 2.943-4.97 0-2.66-1.683-4.06-2.487-4.724h2.173L18.259 0zm-3.08 21.416c0 2.17-1.788 3.779-5.151 3.779-3.748 0-6.166-1.785-6.166-4.268 0-2.487 2.242-3.324 3.012-3.605 1.472-.49 3.364-.56 3.678-.56.351 0 .526 0 .808.034 2.663 1.89 3.819 2.836 3.819 4.62zm-2.804-11.268c-.56.559-1.507.98-2.383.98-3.012 0-4.377-3.886-4.377-6.23 0-.91.175-1.854.77-2.59.56-.7 1.54-1.155 2.452-1.155 2.907 0 4.415 3.92 4.415 6.439 0 .63-.072 1.75-.877 2.556z"/></symbol><symbol viewBox="0 0 185 27" id="logo" xmlns="http://www.w3.org/2000/svg"><g fill="none" fill-rule="evenodd"><path stroke="#00E0A9" stroke-width="1.519" d="M.76 25.276h90.172V.76H.759v24.517z"/><path d="M112.403 19.384l-6.138-7.137v7.137h-3.598V6.408h2.159l6.137 7.137V6.408h3.599v12.976zm7.569-5.882h3.335c0-.17-.08-.38-.24-.55-.26-.342-.758-.607-1.418-.607-1.018 0-1.657.645-1.677 1.157m6.01-1.423c.48.968.5 2.353.14 3.282h-6.27c0 .854.879 1.31 1.818 1.31.878 0 1.897-.152 2.775-.494l1.617 1.689c-1.058.74-2.595 1.498-4.392 1.498-2.996 0-5.032-2.143-5.032-4.857 0-2.693 1.857-4.875 5.011-4.875 2.097 0 3.555.892 4.334 2.447m6.701 7.305h-3.043v-6.78h-1.182V9.672h1.182V6.408h3.043v3.263h1.182v2.934h-1.182zm14.21-.02l-2.252-4.924-2.251 4.924h-1.964l-4.445-9.732h3.175l2.252 5.333 2.252-5.333h1.963l2.252 5.333 2.232-5.333h3.175l-4.445 9.732zm10.316-4.856c0 1.29.968 1.992 1.898 1.992.93 0 1.897-.702 1.897-1.992s-.968-2.011-1.897-2.011c-.93 0-1.897.72-1.897 2.01m6.773 0a4.858 4.858 0 0 1-4.876 4.857 4.842 4.842 0 0 1-4.857-4.856 4.858 4.858 0 0 1 4.857-4.876 4.874 4.874 0 0 1 4.876 4.876m7.335-1.978c-1.34 0-2.17.864-2.17 2.38v4.454h-3.076V9.766h2.031l.355 1.805c.69-1.094 1.854-1.939 3.59-1.939h.512v2.899h-1.242zm8.034 4.13c-.426-.663-.735-.904-1.412-.904h-.252v3.635h-3.019V5.333h3.019v7.39h.232c.677 0 .987-.22 1.412-.883l1.548-2.49h3.347l-2.34 3.695c-.31.482-.871 1.064-1.2 1.205.348.12.909.703 1.218 1.185l2.496 3.956h-3.347l-1.702-2.731zM14.616 19.606v-5.492h-4.438v5.492H6.702V5.368h3.476v5.472h4.438V5.368h3.476v14.238zm19.454-6.285c1.49 0 2.899-.691 2.899-2.339 0-1.566-1.409-2.36-2.9-2.36h-1.636v4.7h1.636zm-.27-7.953c4.245 0 6.503 2.584 6.503 5.614 0 3.051-2.258 5.614-6.503 5.614h-1.367v3.01h-3.52V5.368H33.8zm26.862 14.238v-7.973l-3.854 4.576-3.833-4.576v7.973h-3.56V5.368h2.136l5.257 6.346 5.278-6.346h2.136v14.238zm18.471-3.274c2.153 0 3.814-1.323 3.814-3.845 0-2.501-1.661-3.864-3.814-3.864H77.39v7.709h1.743zm0-10.964c4.04 0 7.3 3.03 7.3 7.12 0 4.108-3.26 7.118-7.3 7.118h-5.23V5.368h5.23z" fill="#00E0A9"/></g></symbol><symbol viewBox="0 0 24 25" id="more_1" xmlns="http://www.w3.org/2000/svg"><path fill="#3573FF" fill-rule="evenodd" stroke="#3573FF" stroke-width="1.333" d="M20.733 12.892c-.069-.114-.246-.114-.303 0l-1.795 3.092a.188.188 0 0 0 .166.28h.817v.668a3.534 3.534 0 0 1-3.543 3.537h-3.2V7.22h5.258c.108 0 .188-.075.188-.184v-.908a.187.187 0 0 0-.188-.189h-5.258V4.681a2.115 2.115 0 0 0 1.126-1.852A2.096 2.096 0 0 0 11.904.744c-.12 0-.246.051-.354.074-.035 0-.069-.029-.103-.017-.069.011-.137.051-.189.074-.103.023-.188.069-.291.12-.154.074-.269.16-.4.269-.057.057-.137.103-.194.165-.12.138-.212.292-.298.446-.034.069-.08.126-.114.194-.08.235-.131.492-.131.76 0 .23.034.44.097.64a.726.726 0 0 0 .103.212 1.2 1.2 0 0 0 .177.343c.057.074.114.137.166.205.091.098.182.178.28.252.08.051.137.108.211.148.023.012.046.04.069.052v1.257H5.91c-.097 0-.177.086-.177.189v.908c0 .109.08.183.177.183h5.023V20.47H7.64a3.526 3.526 0 0 1-3.526-3.537v-.668h.812c.148 0 .234-.149.171-.28l-1.8-3.092a.187.187 0 0 0-.314 0L1.2 15.985c-.068.131.012.28.154.28h.795l.034.668a5.465 5.465 0 0 0 5.457 5.463h3.223l.84 1.446a.183.183 0 0 0 .32 0l.829-1.446h3.222a5.464 5.464 0 0 0 5.469-5.463v-.668h.817c.154 0 .234-.149.166-.28l-1.794-3.092z"/></symbol><symbol viewBox="0 0 24 25" id="more_2" xmlns="http://www.w3.org/2000/svg"><path fill="#3573FF" fill-rule="evenodd" stroke="#3573FF" stroke-width="1.333" d="M20.733 12.892c-.069-.114-.246-.114-.303 0l-1.795 3.092a.188.188 0 0 0 .166.28h.817v.668a3.534 3.534 0 0 1-3.543 3.537h-3.2V7.22h5.258c.108 0 .188-.075.188-.184v-.908a.187.187 0 0 0-.188-.189h-5.258V4.681a2.115 2.115 0 0 0 1.126-1.852A2.096 2.096 0 0 0 11.904.744c-.12 0-.246.051-.354.074-.035 0-.069-.029-.103-.017-.069.011-.137.051-.189.074-.103.023-.188.069-.291.12-.154.074-.269.16-.4.269-.057.057-.137.103-.194.165-.12.138-.212.292-.298.446-.034.069-.08.126-.114.194-.08.235-.131.492-.131.76 0 .23.034.44.097.64a.726.726 0 0 0 .103.212 1.2 1.2 0 0 0 .177.343c.057.074.114.137.166.205.091.098.182.178.28.252.08.051.137.108.211.148.023.012.046.04.069.052v1.257H5.91c-.097 0-.177.086-.177.189v.908c0 .109.08.183.177.183h5.023V20.47H7.64a3.526 3.526 0 0 1-3.526-3.537v-.668h.812c.148 0 .234-.149.171-.28l-1.8-3.092a.187.187 0 0 0-.314 0L1.2 15.985c-.068.131.012.28.154.28h.795l.034.668a5.465 5.465 0 0 0 5.457 5.463h3.223l.84 1.446a.183.183 0 0 0 .32 0l.829-1.446h3.222a5.464 5.464 0 0 0 5.469-5.463v-.668h.817c.154 0 .234-.149.166-.28l-1.794-3.092z"/></symbol><symbol viewBox="0 0 26 25" id="star" xmlns="http://www.w3.org/2000/svg"><path fill="#F1433C" fill-rule="evenodd" d="M12.667 18.975L4.83 24.12l2.47-9.043-7.314-5.864L9.35 8.77 12.667 0l3.316 8.769 9.364.444-7.314 5.864 2.47 9.043z"/></symbol><symbol viewBox="0 0 40 27" id="twitter_x_28_alt_x_29" xmlns="http://www.w3.org/2000/svg"><path fill="#0040FF" fill-rule="evenodd" d="M35.059 11.856c2.174-.18 3.649-1.168 4.216-2.51-.784.483-3.219 1.008-4.563.508-.066-.316-.14-.616-.212-.887-1.024-3.762-4.532-6.792-8.207-6.426.297-.12.599-.232.9-.333.404-.144 2.778-.53 2.404-1.368-.315-.737-3.215.556-3.761.726.72-.271 1.913-.738 2.04-1.566-1.104.151-2.188.674-3.025 1.433.302-.326.531-.723.58-1.15-2.945 1.882-4.666 5.675-6.058 9.355-1.093-1.06-2.062-1.894-2.931-2.357-2.44-1.308-5.355-2.672-9.932-4.371-.14 1.514.749 3.528 3.312 4.867-.555-.075-1.57.091-2.383.286.33 1.735 1.41 3.164 4.335 3.855-1.336.088-2.027.392-2.653 1.048.609 1.206 2.094 2.626 4.766 2.335-2.97 1.28-1.211 3.651 1.206 3.298-4.124 4.259-10.625 3.945-14.358.383 9.747 13.281 30.934 7.855 34.091-4.937 2.366.02 3.756-.82 4.619-1.745-1.363.23-3.339-.008-4.386-.444z"/></symbol><symbol viewBox="0 0 32 27" id="vimeo" xmlns="http://www.w3.org/2000/svg"><path fill="#0040FF" fill-rule="evenodd" d="M26.852.006c-4.264-.14-7.149 2.252-8.66 7.177.778-.32 1.534-.482 2.272-.482 1.554 0 2.243.873 2.059 2.622-.091 1.06-.778 2.601-2.06 4.625-1.285 2.026-2.246 3.038-2.884 3.038-.829 0-1.583-1.566-2.272-4.693-.23-.921-.644-3.267-1.235-7.042C13.518 1.754 12.052.12 9.67.349 8.663.442 7.154 1.365 5.139 3.111A400.49 400.49 0 0 1 .667 7.116l1.442 1.861C3.485 8.011 4.29 7.53 4.514 7.53c1.055 0 2.04 1.656 2.958 4.966.822 3.041 1.651 6.078 2.477 9.114 1.23 3.313 2.747 4.97 4.532 4.97 2.885 0 6.419-2.714 10.586-8.144 4.03-5.199 6.112-9.295 6.252-12.288.185-4.002-1.304-6.05-4.467-6.141z"/></symbol></svg>
